<svg width="60" height="60" fill="none" xmlns="http://www.w3.org/2000/svg"><path d="M53.654 2.932c3.12 2.438 5.16 5.679 5.737 9.614.444 3.79-.493 7.632-2.738 10.727-2.42 3.051-5.723 5.264-9.631 5.811-3.366.265-6.95-.04-9.851-1.937-.337-.147-.463-.095-.806.03-.994.761-1.86 1.703-2.74 2.59l-.644.646-1.363 1.37a1488.774 1488.774 0 0 1-2.212 2.225c-.54.543-1.079 1.08-1.66 1.58-.755.646-1.446 1.358-2.146 2.061l-.45.451-1.176 1.18-1.2 1.201a3485.82 3485.82 0 0 0-2.821 2.83l.36.348a274 274 0 0 1 1.311 1.284l.57.556c.273.265.544.532.815.8l.26.249c.236.236.236.236.578.657-.04.442-.202.67-.512.976l-.236.237-.256.249-.262.26c-.275.273-.552.544-.829.816l-.56.555c-.459.453-.918.906-1.378 1.357-.584-.228-.972-.658-1.402-1.096l-.24-.242a838.998 838.998 0 0 0-1.272-1.284l-1.26-1.273c-.57.225-.95.636-1.371 1.066l-.231.232-.727.736-.495.499c-.404.406-.807.814-1.21 1.222.77.938 1.627 1.781 2.487 2.634a1904.755 1904.755 0 0 1 1.547 1.538c-.788.964-1.673 1.828-2.555 2.704A2078.92 2078.92 0 0 0 11.469 60c-.938-.769-1.781-1.627-2.634-2.486a3174.909 3174.909 0 0 0-1.539-1.547 25.227 25.227 0 0 0-2.121 2.018c-.785.711-1.443.842-2.473.811-.979-.113-1.572-.573-2.19-1.316-.357-.548-.49-1.045-.5-1.696L0 55.412c.166-1.082.827-1.819 1.585-2.562l.291-.291c.315-.316.633-.63.95-.944l.663-.661 1.39-1.383c.594-.587 1.185-1.176 1.776-1.765l1.7-1.693.324-.323.919-.911.269-.268c.423-.418.852-.822 1.303-1.21.678-.587 1.306-1.22 1.937-1.854a747.85 747.85 0 0 1 1.248-1.252l1.347-1.35 2.86-2.867a6010.016 6010.016 0 0 1 5.26-5.273l.564-.567a33.771 33.771 0 0 1 1.863-1.74c.31-.269.601-.552.89-.843l.346-.345.36-.363.38-.38.984-.988 1.01-1.012 1.973-1.98-.23-.454-.302-.601-.15-.298c-.933-1.855-1.562-3.794-1.682-5.88l-.023-.353c-.122-3.845 1.367-7.47 3.939-10.287 5.156-5.47 13.859-6.333 19.91-1.782ZM39.285 8.4l-.272.194c-1.649 1.291-2.63 3.335-2.927 5.369-.206 2.338.39 4.367 1.822 6.22 1.643 1.926 3.95 3.06 6.466 3.281 2.528.083 4.759-.752 6.695-2.387 1.611-1.523 2.541-3.44 2.72-5.65.061-2.304-.636-4.404-2.208-6.099-1.593-1.615-3.738-2.757-6.037-2.876l-.286-.016c-2.206-.07-4.198.692-5.973 1.964Z" fill="#fff"/></svg>